<?xml version="1.0" encoding="UTF-8"?>
<svg width="30px" height="28px" viewBox="0 0 30 28" version="1.1" xmlns="http://www.w3.org/2000/svg" xmlns:xlink="http://www.w3.org/1999/xlink">
    <title>Fill 6</title>
    <g id="页面-1" stroke="none" stroke-width="1" fill="none" fill-rule="evenodd">
        <path d="M25.0122154,27.9913617 C24.4557382,27.1168085 23.9966823,26.1552766 23.5955361,25.141617 L16.580003,25.141617 L16.580003,15.5489362 L26.3127733,15.5489362 C26.3133766,10.7064255 26.8243101,4.58544681 28.6318806,0.0220425532 L24.9054441,0 C23.5041472,3.89229787 23.110843,8.55846809 23.1295431,12.6991915 L16.580003,12.6991915 L16.580003,10.8917021 L22.0814357,10.8917021 L22.2660232,8.04165957 L7.73427839,8.04165957 L7.91856432,10.8917021 L13.3952647,10.8917021 L13.3952647,12.6991915 L6.87075856,12.6991915 C6.88915699,8.55846809 6.49585281,3.89676596 5.09485749,0.00446808511 L1.36811944,0.0220425532 C3.17599155,4.58544681 3.68662344,10.7064255 3.68752828,15.5489362 L13.3952647,15.5489362 L13.3952647,25.141617 L6.4047655,25.141617 C6.00361936,26.1552766 5.5442618,27.1168085 4.98778465,27.9913617 L25.0122154,27.9913617 Z M22.3435379,7.42476596 L22.7124114,4.66170213 C18.3833509,3.99357447 16.8372794,0.267787234 16.7588599,0.00387234043 L13.2414417,0.00387234043 C13.1627206,0.267787234 11.6166491,3.99357447 7.2875886,4.66170213 L7.65646207,7.42476596 C10.9766249,7.1453617 14.5073141,4.51217021 15.0001508,4.24319149 C15.4926859,4.51217021 19.0236767,7.1453617 22.3435379,7.42476596 L22.3435379,7.42476596 Z M26.390288,17.2867234 L18.7820842,17.2867234 L18.7820842,23.6123404 L21.9650128,23.6123404 L21.9650128,20.136766 L23.5397376,20.136766 L23.5469763,20.1799574 C24.4008445,25.1848085 26.3613331,28 26.3613331,28 L30,27.9219574 C28.233449,25.3694894 26.390288,20.3631489 26.390288,17.2867234 L26.390288,17.2867234 Z M3.70683155,17.2867234 L11.2182175,17.2867234 L11.2182175,23.6123404 L8.03498718,23.6123404 L8.03498718,20.136766 L6.4602624,20.136766 L6.45332529,20.1799574 C5.5994571,25.1848085 3.63896848,28 3.63896848,28 L0,27.9219574 C1.76685266,25.3694894 3.70683155,20.3631489 3.70683155,17.2867234 L3.70683155,17.2867234 Z" id="Fill-6" fill="#C7A065"></path>
    </g>
</svg>